<svg width="22" height="22" viewBox="0 0 22 22" fill="none" xmlns="http://www.w3.org/2000/svg">
<path opacity="0.48" d="M6.97478 3.60752C7.82168 2.52375 9.18289 1.85044 10.5619 1.87235C11.9402 1.85044 13.299 2.52212 14.1467 3.60347C14.824 4.4528 15.1818 5.55118 15.1258 6.63658C14.5555 6.5076 13.9763 6.42485 13.3996 6.33075C13.3833 5.44978 12.9063 4.59882 12.1827 4.10236C11.5005 3.62131 10.6001 3.46151 9.79698 3.69676C8.63451 4.00745 7.74137 5.12367 7.72434 6.33238C7.14757 6.42404 6.56836 6.50679 5.9989 6.63739C5.94292 5.5528 6.29904 4.45605 6.97478 3.60752Z" fill="#637381"/>
<path fill-rule="evenodd" clip-rule="evenodd" d="M17.4181 8.81489C17.4175 8.59079 17.4169 8.36675 17.4183 8.14281C13.0207 6.6218 8.11536 6.61936 3.71698 8.13957C3.71802 8.45455 3.71772 8.76967 3.71743 9.08482C3.71703 9.50502 3.71663 9.92527 3.71941 10.3452C3.78999 11.9149 4.18748 13.4725 4.90459 14.8718C6.08409 17.2267 8.13564 19.1201 10.562 20.1374C12.2655 19.4202 13.7881 18.2781 14.9482 16.839C16.5 14.9286 17.3907 12.4885 17.4094 10.0256C17.4203 9.62198 17.4192 9.21833 17.4181 8.81489ZM9.84648 12.5444C9.23077 12.2654 8.81137 11.5969 8.86735 10.9163C8.87465 10.041 9.68342 9.26877 10.5595 9.30366C11.4665 9.2631 12.2988 10.0913 12.2574 10.9991C12.2842 11.6513 11.8664 12.2759 11.2783 12.5436C11.8583 12.7472 12.3596 13.1739 12.6184 13.7345C12.8155 14.1206 12.8407 14.5619 12.8488 14.987C11.3245 14.9878 9.80024 14.9878 8.27517 14.987C8.26868 14.4216 8.36764 13.8318 8.72133 13.3727C8.9939 12.9833 9.40194 12.7059 9.84648 12.5444Z" fill="#637381"/>
</svg>
