<svg width="16" height="18" viewBox="0 0 16 18" fill="none" xmlns="http://www.w3.org/2000/svg">
<path d="M14.416 0.75H3.41602C2.68667 0.75 1.9872 1.03973 1.47147 1.55546C0.955747 2.07118 0.666016 2.77065 0.666016 3.5V14.5C0.666016 15.2293 0.955747 15.9288 1.47147 16.4445C1.9872 16.9603 2.68667 17.25 3.41602 17.25H14.416C14.6591 17.25 14.8923 17.1534 15.0642 16.9815C15.2361 16.8096 15.3327 16.5764 15.3327 16.3333V1.66667C15.3327 1.42355 15.2361 1.19039 15.0642 1.01849C14.8923 0.846577 14.6591 0.75 14.416 0.75ZM3.41602 15.4167C3.1729 15.4167 2.93974 15.3201 2.76783 15.1482C2.59593 14.9763 2.49935 14.7431 2.49935 14.5C2.49935 14.2569 2.59593 14.0237 2.76783 13.8518C2.93974 13.6799 3.1729 13.5833 3.41602 13.5833H13.4993V15.4167H3.41602Z" fill="#637381"/>
</svg>
