<svg width="22" height="22" viewBox="0 0 22 22" fill="none" xmlns="http://www.w3.org/2000/svg">
<path d="M8.10504 2.55615C3.77329 2.55615 0.458374 5.49552 0.458374 8.69975C0.458374 11.904 3.32044 13.7606 3.32044 13.7606L2.85529 15.5237C2.79379 15.7561 3.04284 15.948 3.25192 15.8294L5.34268 14.6448C6.26727 14.9391 8.22934 15.0331 8.42041 15.0419C8.28337 14.5666 8.21572 14.0984 8.21572 13.6614C8.21572 11.1885 10.3689 7.70532 15.1552 7.70532C15.2641 7.70532 15.3731 7.70795 15.482 7.71235C14.8451 4.66405 11.68 2.55615 8.10504 2.55615Z" fill="#637381"/>
<path opacity="0.48" d="M21.5416 13.2743C21.5416 10.4675 18.2487 8.41235 15.1547 8.41235C10.779 8.41235 8.92236 11.5727 8.92236 13.6612C8.92236 15.7542 10.7786 18.9101 15.1547 18.9101C16.1228 18.9101 16.9744 18.7713 17.715 18.5253L19.3608 19.5698C19.4908 19.6524 19.6551 19.536 19.6204 19.3858L19.247 17.765C20.8019 16.6819 21.5416 14.9745 21.5416 13.2743Z" fill="#637381"/>
</svg>
