<svg width="22" height="22" viewBox="0 0 22 22" fill="none" xmlns="http://www.w3.org/2000/svg">
<path d="M18.095 6.71901L14.025 2.13567C13.9393 2.04071 13.8346 1.96474 13.7178 1.91264C13.601 1.86055 13.4745 1.83348 13.3466 1.83317H6.01329C5.70873 1.82954 5.40643 1.88594 5.12367 1.99914C4.8409 2.11235 4.58321 2.28014 4.36529 2.49295C4.14738 2.70575 3.97352 2.9594 3.85364 3.2394C3.73376 3.5194 3.67022 3.82028 3.66663 4.12484V17.8748C3.67022 18.1794 3.73376 18.4803 3.85364 18.7603C3.97352 19.0403 4.14738 19.2939 4.36529 19.5067C4.58321 19.7195 4.8409 19.8873 5.12367 20.0005C5.40643 20.1137 5.70873 20.1701 6.01329 20.1665H15.9866C16.2912 20.1701 16.5935 20.1137 16.8763 20.0005C17.159 19.8873 17.4167 19.7195 17.6346 19.5067C17.8525 19.2939 18.0264 19.0403 18.1463 18.7603C18.2662 18.4803 18.3297 18.1794 18.3333 17.8748V7.33317C18.3327 7.10599 18.2478 6.88712 18.095 6.71901ZM12.8333 3.66651L16.2616 7.33317H13.5116C13.4156 7.32738 13.3218 7.30252 13.2355 7.26005C13.1492 7.21758 13.0722 7.15836 13.0091 7.08582C12.9459 7.01329 12.8979 6.92891 12.8677 6.8376C12.8375 6.74629 12.8258 6.64988 12.8333 6.55401V3.66651Z" fill="#637381"/>
</svg>
