<svg width="16" height="16" viewBox="0 0 16 16" fill="none" xmlns="http://www.w3.org/2000/svg">
<path fill-rule="evenodd" clip-rule="evenodd" d="M8.0026 1.33325C4.32071 1.33325 1.33594 4.31802 1.33594 7.99992C1.33594 11.6818 4.32071 14.6666 8.0026 14.6666C11.6845 14.6666 14.6693 11.6818 14.6693 7.99992C14.6693 6.23181 13.9669 4.53612 12.7167 3.28587C11.4664 2.03563 9.77071 1.33325 8.0026 1.33325ZM8.0026 11.3333C7.63441 11.3333 7.33594 11.0348 7.33594 10.6666C7.33594 10.2984 7.63441 9.99992 8.0026 9.99992C8.37079 9.99992 8.66927 10.2984 8.66927 10.6666C8.66927 11.0348 8.37079 11.3333 8.0026 11.3333ZM8.0026 9.33325C8.37079 9.33325 8.66927 9.03477 8.66927 8.66658V5.33325C8.66927 4.96506 8.37079 4.66658 8.0026 4.66658C7.63441 4.66658 7.33594 4.96506 7.33594 5.33325V8.66658C7.33594 9.03477 7.63441 9.33325 8.0026 9.33325Z" fill="#FFC107"/>
</svg>
