<svg width="24" height="24" viewBox="0 0 24 24" fill="none" xmlns="http://www.w3.org/2000/svg">
<path fill-rule="evenodd" clip-rule="evenodd" d="M22.563 16.2999L14.893 3.57994C14.2627 2.59394 13.1733 1.99731 12.003 1.99731C10.8328 1.99731 9.74331 2.59394 9.11303 3.57994L1.44303 16.2999C0.891576 17.2192 0.872516 18.3628 1.39303 19.2999C1.995 20.3551 3.11826 21.0046 4.33303 20.9999H19.673C20.8795 21.0128 22.0009 20.3797 22.613 19.3399C23.1491 18.3926 23.13 17.2292 22.563 16.2999ZM12.003 16.9999C11.4507 16.9999 11.003 16.5522 11.003 15.9999C11.003 15.4477 11.4507 14.9999 12.003 14.9999C12.5553 14.9999 13.003 15.4477 13.003 15.9999C13.003 16.5522 12.5553 16.9999 12.003 16.9999ZM12.003 13.9999C12.5553 13.9999 13.003 13.5522 13.003 12.9999V8.99994C13.003 8.44765 12.5553 7.99994 12.003 7.99994C11.4507 7.99994 11.003 8.44765 11.003 8.99994V12.9999C11.003 13.5522 11.4507 13.9999 12.003 13.9999Z" fill="#FFC107"/>
</svg>
