<svg width="20" height="20" viewBox="0 0 20 20" fill="none" xmlns="http://www.w3.org/2000/svg">
<path d="M16.7083 9.16699H3.29167C2.85444 9.16699 2.5 9.52143 2.5 9.95866V10.042C2.5 10.4792 2.85444 10.8337 3.29167 10.8337H16.7083C17.1456 10.8337 17.5 10.4792 17.5 10.042V9.95866C17.5 9.52143 17.1456 9.16699 16.7083 9.16699Z" fill="#005B7F"/>
<path d="M16.7083 13.333H3.29167C2.85444 13.333 2.5 13.6874 2.5 14.1247V14.208C2.5 14.6452 2.85444 14.9997 3.29167 14.9997H16.7083C17.1456 14.9997 17.5 14.6452 17.5 14.208V14.1247C17.5 13.6874 17.1456 13.333 16.7083 13.333Z" fill="#005B7F"/>
<path d="M16.7083 5H3.29167C2.85444 5 2.5 5.35444 2.5 5.79167V5.875C2.5 6.31223 2.85444 6.66667 3.29167 6.66667H16.7083C17.1456 6.66667 17.5 6.31223 17.5 5.875V5.79167C17.5 5.35444 17.1456 5 16.7083 5Z" fill="#005B7F"/>
</svg>
