<svg width="5" height="10" viewBox="0 0 5 10" fill="none" xmlns="http://www.w3.org/2000/svg">
<path d="M0.666866 9.66655C0.511097 9.66685 0.36014 9.6126 0.240199 9.51322C0.103861 9.40018 0.0181003 9.23755 0.00184094 9.0612C-0.0144184 8.88484 0.0401596 8.70927 0.153532 8.57322L3.1402 4.99988L0.260199 1.41988C0.148352 1.28215 0.0960196 1.10552 0.114789 0.929093C0.133557 0.752666 0.221879 0.590997 0.360199 0.479882C0.499643 0.357189 0.68395 0.298232 0.868715 0.317214C1.05348 0.336197 1.22195 0.431398 1.33353 0.579882L4.55353 4.57988C4.75574 4.82588 4.75574 5.18055 4.55353 5.42655L1.2202 9.42655C1.08456 9.59018 0.879022 9.67933 0.666866 9.66655Z" fill="#004C6A"/>
</svg>
