<svg width="18" height="18" viewBox="0 0 18 18" fill="none" xmlns="http://www.w3.org/2000/svg">
<path d="M9 16.5C6.57815 16.5587 4.56543 14.6466 4.5 12.225V4.59745C4.54502 2.84692 5.9968 1.4622 7.7475 1.49995C9.5011 1.458 10.9575 2.84393 11.0025 4.59745V12.2325C10.9378 13.2888 10.0621 14.1125 9.00375 14.1125C7.94537 14.1125 7.06974 13.2888 7.005 12.2325V5.18995C7.005 4.77574 7.34079 4.43995 7.755 4.43995C8.16921 4.43995 8.505 4.77574 8.505 5.18995V12.2325C8.53595 12.4844 8.74992 12.6737 9.00375 12.6737C9.25758 12.6737 9.47155 12.4844 9.5025 12.2325V4.59745C9.45398 3.67406 8.67137 2.96169 7.7475 2.99995C6.82649 2.9659 6.04852 3.67709 6 4.59745V12.225C6.065 13.8183 7.40637 15.0591 9 15C10.5936 15.0591 11.935 13.8183 12 12.225V4.59745C12 4.18324 12.3358 3.84745 12.75 3.84745C13.1642 3.84745 13.5 4.18324 13.5 4.59745V12.225C13.4346 14.6466 11.4219 16.5587 9 16.5Z" fill="#637381"/>
</svg>
