<svg width="6" height="6" viewBox="0 0 6 6" fill="none" xmlns="http://www.w3.org/2000/svg">
<path d="M3.70432 2.99957L5.85224 0.85634C6.04812 0.66044 6.04812 0.342824 5.85224 0.146925C5.65637 -0.0489749 5.3388 -0.0489749 5.14293 0.146925L3 2.29515L0.857071 0.146925C0.661199 -0.0489749 0.343628 -0.0489749 0.147756 0.146925C-0.0481154 0.342824 -0.0481154 0.66044 0.147756 0.85634L2.29568 2.99957L0.147756 5.14281C0.0531914 5.23661 0 5.36431 0 5.49752C0 5.63072 0.0531914 5.75842 0.147756 5.85222C0.241549 5.9468 0.369224 6 0.502414 6C0.635604 6 0.763278 5.9468 0.857071 5.85222L3 3.70399L5.14293 5.85222C5.23672 5.9468 5.3644 6 5.49759 6C5.63078 6 5.75845 5.9468 5.85224 5.85222C5.94681 5.75842 6 5.63072 6 5.49752C6 5.36431 5.94681 5.23661 5.85224 5.14281L3.70432 2.99957Z" fill="#637381"/>
</svg>
