<svg width="20" height="20" viewBox="0 0 20 20" fill="none" xmlns="http://www.w3.org/2000/svg">
<path d="M10.0004 6.66756C9.8057 6.66718 9.61701 6.73499 9.46708 6.85922L4.46708 11.0259C4.1127 11.3204 4.06419 11.8465 4.35874 12.2009C4.6533 12.5553 5.17936 12.6038 5.53374 12.3092L10.0004 8.57589L14.4671 12.1759C14.6392 12.3157 14.86 12.3811 15.0806 12.3577C15.3011 12.3342 15.5032 12.2238 15.6421 12.0509C15.7964 11.8777 15.8715 11.648 15.8493 11.4171C15.8272 11.1862 15.7098 10.975 15.5254 10.8342L10.5254 6.80922C10.3712 6.70463 10.1863 6.65475 10.0004 6.66756Z" fill="#212B36"/>
</svg>
