<svg width="20" height="20" viewBox="0 0 20 20" fill="none" xmlns="http://www.w3.org/2000/svg">
<g clip-path="url(#clip0_722_5014)">
<path d="M15.8335 15H4.16683C3.70659 15 3.3335 15.3731 3.3335 15.8333C3.3335 16.2936 3.70659 16.6667 4.16683 16.6667H15.8335C16.2937 16.6667 16.6668 16.2936 16.6668 15.8333C16.6668 15.3731 16.2937 15 15.8335 15Z" fill="black" fill-opacity="0.4"/>
<path d="M3.3335 14.1667V15.8334C3.3335 16.2937 3.70659 16.6667 4.16683 16.6667C4.62707 16.6667 5.00016 16.2937 5.00016 15.8334V14.1667C5.00016 13.7065 4.62707 13.3334 4.16683 13.3334C3.70659 13.3334 3.3335 13.7065 3.3335 14.1667Z" fill="black" fill-opacity="0.4"/>
<path d="M15 14.1667V15.8334C15 16.2937 15.3731 16.6667 15.8333 16.6667C16.2936 16.6667 16.6667 16.2937 16.6667 15.8334V14.1667C16.6667 13.7065 16.2936 13.3334 15.8333 13.3334C15.3731 13.3334 15 13.7065 15 14.1667Z" fill="black" fill-opacity="0.4"/>
<path d="M9.99988 12.4999C9.82711 12.5012 9.65821 12.4488 9.51654 12.3499L6.18321 9.99992C6.00355 9.87248 5.88166 9.67908 5.84419 9.46203C5.80671 9.24497 5.85669 9.0219 5.98321 8.84159C6.04637 8.75146 6.12675 8.67474 6.21972 8.61584C6.31268 8.55695 6.4164 8.51705 6.52486 8.49846C6.63333 8.47986 6.74441 8.48294 6.85169 8.5075C6.95896 8.53207 7.06031 8.57764 7.14988 8.64159L9.99988 10.6333L12.8332 8.49992C13.01 8.36731 13.2323 8.31037 13.4511 8.34163C13.6699 8.37289 13.8673 8.48978 13.9999 8.66659C14.1325 8.8434 14.1894 9.06565 14.1582 9.28444C14.1269 9.50323 14.01 9.70065 13.8332 9.83326L10.4999 12.3333C10.3556 12.4414 10.1802 12.4999 9.99988 12.4999Z" fill="black" fill-opacity="0.4"/>
<path d="M9.99984 10.8333C9.77882 10.8333 9.56686 10.7455 9.41058 10.5893C9.2543 10.433 9.1665 10.221 9.1665 10V3.33333C9.1665 3.11232 9.2543 2.90036 9.41058 2.74408C9.56686 2.5878 9.77882 2.5 9.99984 2.5C10.2209 2.5 10.4328 2.5878 10.5891 2.74408C10.7454 2.90036 10.8332 3.11232 10.8332 3.33333V10C10.8332 10.221 10.7454 10.433 10.5891 10.5893C10.4328 10.7455 10.2209 10.8333 9.99984 10.8333Z" fill="black" fill-opacity="0.4"/>
</g>
<defs>
<clipPath id="clip0_722_5014">
<rect width="20" height="20" fill="white"/>
</clipPath>
</defs>
</svg>
