<svg width="80" height="80" viewBox="0 0 80 80" fill="none" xmlns="http://www.w3.org/2000/svg">
<g id="eva/person-delete">
<path id="primary-shape" fill-rule="evenodd" clip-rule="evenodd" d="M17.7049 35.8733C27.4315 18.6233 32.2949 10 39.9982 10C47.6982 10 52.5649 18.6233 62.2915 35.8733L63.5049 38.02C71.5882 52.3533 75.6315 59.52 71.9782 64.76C68.3249 70 59.2849 70 41.2115 70H38.7849C20.7115 70 11.6715 70 8.0182 64.76C4.36486 59.52 8.4082 52.3533 16.4915 38.02L17.7049 35.8733ZM39.9982 24.1667C40.6612 24.1667 41.2971 24.4301 41.766 24.8989C42.2348 25.3677 42.4982 26.0036 42.4982 26.6667V43.3333C42.4982 43.9964 42.2348 44.6323 41.766 45.1011C41.2971 45.5699 40.6612 45.8333 39.9982 45.8333C39.3352 45.8333 38.6993 45.5699 38.2304 45.1011C37.7616 44.6323 37.4982 43.9964 37.4982 43.3333V26.6667C37.4982 26.0036 37.7616 25.3677 38.2304 24.8989C38.6993 24.4301 39.3352 24.1667 39.9982 24.1667ZM39.9982 56.6667C40.8823 56.6667 41.7301 56.3155 42.3552 55.6904C42.9803 55.0652 43.3315 54.2174 43.3315 53.3333C43.3315 52.4493 42.9803 51.6014 42.3552 50.9763C41.7301 50.3512 40.8823 50 39.9982 50C39.1141 50 38.2663 50.3512 37.6412 50.9763C37.0161 51.6014 36.6649 52.4493 36.6649 53.3333C36.6649 54.2174 37.0161 55.0652 37.6412 55.6904C38.2663 56.3155 39.1141 56.6667 39.9982 56.6667Z" fill="#FFAC82"/>
</g>
</svg>
