<svg width="14" height="14" viewBox="0 0 14 14" fill="none" xmlns="http://www.w3.org/2000/svg">
<path fill-rule="evenodd" clip-rule="evenodd" d="M10.8816 0.833217L13.165 3.11655C13.8033 3.72469 13.8294 4.7346 13.2233 5.37488L5.7233 12.8749C5.45166 13.1442 5.09563 13.312 4.71496 13.3499L1.23996 13.6665H1.16496C0.943462 13.6678 0.730564 13.5809 0.573298 13.4249C0.397496 13.2497 0.308903 13.0053 0.331631 12.7582L0.689965 9.28322C0.727885 8.90255 0.895603 8.54652 1.16496 8.27488L8.66496 0.774884C9.31148 0.228677 10.2647 0.253762 10.8816 0.833217ZM8.0983 3.66655L10.3316 5.89988L11.9983 4.27488L9.7233 1.99988L8.0983 3.66655Z" fill="#005B7F"/>
</svg>
