<svg width="19" height="18" viewBox="0 0 19 18" fill="none" xmlns="http://www.w3.org/2000/svg">
<path fill-rule="evenodd" clip-rule="evenodd" d="M9.04639 1.5C13.1886 1.5 16.5464 4.85775 16.5464 9C16.5464 13.1423 13.1886 16.5 9.04639 16.5C4.90414 16.5 1.54639 13.1423 1.54639 9C1.54639 4.85775 4.90414 1.5 9.04639 1.5ZM9.04639 3C5.73268 3 3.04639 5.68629 3.04639 9C3.04639 12.3137 5.73268 15 9.04639 15C12.3601 15 15.0464 12.3137 15.0464 9C15.0464 5.68629 12.3601 3 9.04639 3ZM9.04639 13.5C11.1175 13.5 12.7964 11.8211 12.7964 9.75H5.29639C5.29639 11.8211 6.97532 13.5 9.04639 13.5Z" fill="#637381"/>
</svg>
