<svg width="25" height="24" viewBox="0 0 25 24" fill="none" xmlns="http://www.w3.org/2000/svg">
<g clip-path="url(#clip0_302_13405)">
<circle opacity="0.16" cx="12.5" cy="12" r="12" fill="#FF5630"/>
<path d="M18.5 8.66667C18.5063 8.62021 18.5063 8.57312 18.5 8.52667C18.4942 8.48753 18.4829 8.44938 18.4666 8.41333C18.449 8.38075 18.429 8.34955 18.4066 8.32C18.3813 8.27784 18.3498 8.23965 18.3133 8.20667L18.2333 8.16C18.1948 8.1313 18.1521 8.10881 18.1066 8.09333H17.9733C17.9327 8.054 17.8852 8.02237 17.8333 8H14.5C14.1318 8 13.8333 8.29848 13.8333 8.66667C13.8333 9.03486 14.1318 9.33333 14.5 9.33333H16.3866L13.72 12.4733L10.84 10.76C10.5581 10.5924 10.1963 10.6546 9.98662 10.9067L6.65329 14.9067C6.53992 15.0427 6.48534 15.2183 6.5016 15.3946C6.51786 15.571 6.60362 15.7336 6.73995 15.8467C6.8599 15.9461 7.01085 16.0003 7.16662 16C7.36491 16.0003 7.55305 15.9124 7.67995 15.76L10.6466 12.2L13.4933 13.9067C13.772 14.072 14.1293 14.0129 14.34 13.7667L17.1666 10.4667V12C17.1666 12.3682 17.4651 12.6667 17.8333 12.6667C18.2015 12.6667 18.5 12.3682 18.5 12V8.66667Z" fill="#FF5630"/>
</g>
<defs>
<clipPath id="clip0_302_13405">
<rect width="24" height="24" fill="white" transform="translate(0.5)"/>
</clipPath>
</defs>
</svg>
