<svg width="24" height="24" viewBox="0 0 24 24" fill="none" xmlns="http://www.w3.org/2000/svg">
	<g clip-path="url(#clip0_746_36066)">
		<circle opacity="0.16" cx="12" cy="12" r="12" fill="#60F1C8" />
		<path d="M18.0012 8.66667C18.0075 8.62021 18.0075 8.57312 18.0012 8.52667C17.9954 8.48753 17.9842 8.44938 17.9678 8.41333C17.9502 8.38075 17.9302 8.34955 17.9078 8.32C17.8825 8.27784 17.851 8.23965 17.8145 8.20667L17.7345 8.16C17.696 8.1313 17.6533 8.10881 17.6078 8.09333H17.4745C17.4339 8.054 17.3864 8.02237 17.3345 8H14.0012C13.633 8 13.3345 8.29848 13.3345 8.66667C13.3345 9.03486 13.633 9.33333 14.0012 9.33333H15.8878L13.2212 12.4733L10.3412 10.76C10.0594 10.5924 9.69752 10.6546 9.48784 10.9067L6.15451 14.9067C6.04114 15.0427 5.98656 15.2183 6.00282 15.3946C6.01908 15.571 6.10484 15.7336 6.24118 15.8467C6.36112 15.9461 6.51207 16.0003 6.66784 16C6.86613 16.0003 7.05427 15.9124 7.18118 15.76L10.1478 12.2L12.9945 13.9067C13.2732 14.072 13.6305 14.0129 13.8412 13.7667L16.6678 10.4667V12C16.6678 12.3682 16.9663 12.6667 17.3345 12.6667C17.7027 12.6667 18.0012 12.3682 18.0012 12V8.66667Z" fill="#60F1C8" />
	</g>
	<defs>
		<clipPath id="clip0_746_36066">
			<rect width="24" height="24" fill="white" />
		</clipPath>
	</defs>
</svg>
