<svg width="18" height="18" viewBox="0 0 18 18" fill="none" xmlns="http://www.w3.org/2000/svg">
<path fill-rule="evenodd" clip-rule="evenodd" d="M15.765 3.75H14.25V2.235C14.25 1.83 13.92 1.5 13.515 1.5H13.4925C13.08 1.5 12.75 1.83 12.75 2.235V3.75H11.2425C10.8375 3.75 10.5075 4.08 10.5 4.485V4.5075C10.5 4.92 10.83 5.25 11.2425 5.25H12.75V6.7575C12.75 7.1625 13.08 7.5 13.4925 7.4925H13.515C13.92 7.4925 14.25 7.1625 14.25 6.7575V5.25H15.765C16.17 5.25 16.5 4.92 16.5 4.515V4.485C16.5 4.08 16.17 3.75 15.765 3.75ZM12 6.7575V6H11.2425C10.845 6 10.47 5.8425 10.185 5.565C9.9075 5.28 9.75 4.905 9.75 4.485C9.75 4.215 9.825 3.9675 9.9525 3.75H3.75C2.925 3.75 2.25 4.425 2.25 5.25V14.25C2.25 15.075 2.925 15.75 3.75 15.75H12.75C13.575 15.75 14.25 15.075 14.25 14.25V8.04C14.025 8.1675 13.77 8.25 13.485 8.25C12.6675 8.2425 12 7.575 12 6.7575ZM4.5 14.25H11.97C12.285 14.25 12.4575 13.89 12.2625 13.6425L10.05 10.8825C9.9 10.6875 9.6075 10.695 9.4575 10.89L7.5 13.5L6.3 11.6925C6.15 11.4825 5.8425 11.4675 5.685 11.6775L4.2 13.65C4.0125 13.8975 4.1925 14.25 4.5 14.25Z" fill="#637381"/>
</svg>
