<svg width="14" height="14" viewBox="0 0 14 14" fill="none" xmlns="http://www.w3.org/2000/svg">
<path fill-rule="evenodd" clip-rule="evenodd" d="M13.6666 7.00065C13.6666 10.6827 10.6819 13.6673 6.99992 13.6673C3.31792 13.6673 0.333252 10.6827 0.333252 7.00065C0.333252 3.31865 3.31792 0.333984 6.99992 0.333984C10.6819 0.333984 13.6666 3.31865 13.6666 7.00065ZM6.99992 10.834C7.13253 10.834 7.2597 10.7813 7.35347 10.6875C7.44724 10.5938 7.49992 10.4666 7.49992 10.334V6.33398C7.49992 6.20138 7.44724 6.0742 7.35347 5.98043C7.2597 5.88666 7.13253 5.83398 6.99992 5.83398C6.86731 5.83398 6.74013 5.88666 6.64637 5.98043C6.5526 6.0742 6.49992 6.20138 6.49992 6.33398V10.334C6.49992 10.61 6.72392 10.834 6.99992 10.834ZM6.99992 3.66732C7.17673 3.66732 7.3463 3.73756 7.47132 3.86258C7.59635 3.9876 7.66659 4.15717 7.66659 4.33398C7.66659 4.5108 7.59635 4.68036 7.47132 4.80539C7.3463 4.93041 7.17673 5.00065 6.99992 5.00065C6.82311 5.00065 6.65354 4.93041 6.52851 4.80539C6.40349 4.68036 6.33325 4.5108 6.33325 4.33398C6.33325 4.15717 6.40349 3.9876 6.52851 3.86258C6.65354 3.73756 6.82311 3.66732 6.99992 3.66732Z" fill="#637381"/>
</svg>
