<svg width="18" height="18" viewBox="0 0 18 18" fill="none" xmlns="http://www.w3.org/2000/svg">
<path fill-rule="evenodd" clip-rule="evenodd" d="M12 8.25C12 9.90685 10.6569 11.25 9 11.25C7.34315 11.25 6 9.90685 6 8.25V4.5C6 2.84315 7.34315 1.5 9 1.5C10.6569 1.5 12 2.84315 12 4.5V8.25ZM13.5 7.5C13.9142 7.5 14.25 7.83579 14.25 8.25C14.2469 10.8574 12.3307 13.0675 9.75 13.44V15H11.3325C11.7011 15 12 15.2989 12 15.6675V15.8325C12 16.2011 11.7011 16.5 11.3325 16.5H6.6675C6.29885 16.5 6 16.2011 6 15.8325V15.6675C6 15.2989 6.29885 15 6.6675 15H8.25V13.44C5.6693 13.0675 3.75306 10.8574 3.75 8.25C3.75 7.83579 4.08579 7.5 4.5 7.5C4.91421 7.5 5.25 7.83579 5.25 8.25C5.25 10.3211 6.92893 12 9 12C11.0711 12 12.75 10.3211 12.75 8.25C12.75 7.83579 13.0858 7.5 13.5 7.5Z" fill="#637381"/>
</svg>
