<svg width="24" height="24" viewBox="0 0 24 24" fill="none" xmlns="http://www.w3.org/2000/svg">
<g clip-path="url(#clip0_2162_20572)">
<circle opacity="0.16" cx="12" cy="12" r="12" fill="#FF5630"/>
<path d="M18.0001 12.0001C18.0001 11.6319 17.7016 11.3334 17.3334 11.3334C16.9653 11.3334 16.6668 11.6319 16.6668 12.0001V13.5334L13.8401 10.2001C13.6294 9.95386 13.2722 9.89479 12.9934 10.0601L10.1468 11.8001L7.18011 8.24011C7.02768 8.05672 6.78898 7.96858 6.55394 8.00889C6.3189 8.0492 6.12321 8.21185 6.04061 8.43556C5.958 8.65926 6.00101 8.91005 6.15344 9.09345L9.48678 13.0934C9.69645 13.3455 10.0583 13.4077 10.3401 13.2401L13.1934 11.5268L15.8601 14.6668H14.0001C13.6319 14.6668 13.3334 14.9653 13.3334 15.3334C13.3334 15.7016 13.6319 16.0001 14.0001 16.0001H17.3334C17.4155 15.9981 17.4966 15.9823 17.5734 15.9534L17.6668 15.9001C17.7015 15.8826 17.735 15.8625 17.7668 15.8401C17.8033 15.8071 17.8347 15.7689 17.8601 15.7268C17.8824 15.6972 17.9025 15.666 17.9201 15.6334C17.9364 15.5974 17.9476 15.5593 17.9534 15.5201C17.9805 15.4613 17.9963 15.398 18.0001 15.3334V12.0001Z" fill="#FF5630"/>
</g>
<defs>
<clipPath id="clip0_2162_20572">
<rect width="24" height="24" fill="white"/>
</clipPath>
</defs>
</svg>
