<svg width="80" height="80" viewBox="0 0 80 80" fill="none" xmlns="http://www.w3.org/2000/svg">
<g clip-path="url(#clip0_545_15668)">
<path d="M68.2334 25.0001L70.6667 22.5668C71.3165 21.917 71.6816 21.0357 71.6816 20.1168C71.6816 19.1978 71.3165 18.3165 70.6667 17.6668C70.017 17.017 69.1357 16.6519 68.2167 16.6519C67.2978 16.6519 66.4165 17.017 65.7667 17.6668L63.3334 20.0001L60.9001 17.5668C60.237 16.917 59.343 16.5572 58.4147 16.5666C57.4864 16.576 56.5998 16.9537 55.9501 17.6168C55.3003 18.2798 54.9405 19.1738 54.9499 20.1021C54.9593 21.0304 55.337 21.917 56.0001 22.5668L58.4334 25.0001L56.0001 27.4334C55.3503 28.0832 54.9852 28.9645 54.9852 29.8834C54.9852 30.8024 55.3503 31.6836 56.0001 32.3334C56.6498 32.9832 57.5311 33.3483 58.4501 33.3483C59.369 33.3483 60.2503 32.9832 60.9001 32.3334L63.3334 30.0001L65.7667 32.4334C66.4298 33.0832 67.3238 33.443 68.2521 33.4336C69.1804 33.4242 70.067 33.0465 70.7167 32.3834C71.3665 31.7204 71.7263 30.8264 71.7169 29.8981C71.7075 28.9698 71.3298 28.0832 70.6667 27.4334L68.2334 25.0001Z" fill="#FFA48D"/>
<path d="M33.3333 36.6667C35.9704 36.6667 38.5483 35.8847 40.7409 34.4196C42.9336 32.9545 44.6426 30.8721 45.6517 28.4358C46.6609 25.9994 46.9249 23.3185 46.4105 20.7321C45.896 18.1457 44.6261 15.7699 42.7614 13.9052C40.8967 12.0405 38.521 10.7707 35.9345 10.2562C33.3481 9.74173 30.6672 10.0058 28.2309 11.0149C25.7945 12.0241 23.7122 13.7331 22.2471 15.9257C20.782 18.1184 20 20.6963 20 23.3333C20 26.8696 21.4048 30.2609 23.9052 32.7614C26.4057 35.2619 29.7971 36.6667 33.3333 36.6667Z" fill="#FFA48D"/>
<path d="M53.3333 70.0007C54.2174 70.0007 55.0652 69.6495 55.6904 69.0243C56.3155 68.3992 56.6667 67.5514 56.6667 66.6673C56.6667 60.4789 54.2083 54.544 49.8325 50.1682C45.4566 45.7923 39.5217 43.334 33.3333 43.334C27.1449 43.334 21.21 45.7923 16.8342 50.1682C12.4583 54.544 10 60.4789 10 66.6673C10 67.5514 10.3512 68.3992 10.9763 69.0243C11.6014 69.6495 12.4493 70.0007 13.3333 70.0007H53.3333Z" fill="#FFA48D"/>
</g>
<defs>
<clipPath id="clip0_545_15668">
<rect width="80" height="80" fill="white"/>
</clipPath>
</defs>
</svg>
