<svg width="22" height="19" viewBox="0 0 22 19" fill="none" xmlns="http://www.w3.org/2000/svg">
	<path fill-rule="evenodd" clip-rule="evenodd" d="M21.563 14.2999L13.893 1.57994C13.2627 0.593938 12.1733 -0.00268555 11.003 -0.00268555C9.8328 -0.00268555 8.74331 0.593938 8.11303 1.57994L0.44303 14.2999C-0.108424 15.2192 -0.127484 16.3628 0.39303 17.2999C0.995004 18.3551 2.11826 19.0046 3.33303 18.9999H18.673C19.8795 19.0128 21.0009 18.3797 21.613 17.3399C22.1491 16.3926 22.13 15.2292 21.563 14.2999ZM11.003 14.9999C10.4507 14.9999 10.003 14.5522 10.003 13.9999C10.003 13.4477 10.4507 12.9999 11.003 12.9999C11.5553 12.9999 12.003 13.4477 12.003 13.9999C12.003 14.5522 11.5553 14.9999 11.003 14.9999ZM11.003 11.9999C11.5553 11.9999 12.003 11.5522 12.003 10.9999V6.99994C12.003 6.44765 11.5553 5.99994 11.003 5.99994C10.4507 5.99994 10.003 6.44765 10.003 6.99994V10.9999C10.003 11.5522 10.4507 11.9999 11.003 11.9999Z" fill="#FFC107" />
</svg>
